<svg width="182" height="158" viewBox="0 0 182 158" fill="none" xmlns="http://www.w3.org/2000/svg">
<g clip-path="url(#clip0_177_276)">
<path d="M1.75708 89.3654C6.4743 90.0097 35.612 92.9637 63.5266 93.4123C91.4422 94.2405 118.173 92.6772 118.173 92.6772C118.211 92.6012 118.172 92.4873 118.21 92.4114C118.21 92.4114 89.6542 94.0132 60.7487 92.6916C31.8063 91.8257 2.59101 88.2642 1.1432 87.1635C1.33521 87.9228 1.56507 88.6061 1.75708 89.3654Z" fill="#231F20"/>
<path d="M117.787 90.5891C117.859 88.7287 117.893 86.9443 118.154 85.0839C119.415 71.8713 124.44 58.5439 133.116 45.3294L133.268 45.4053C113.757 75.2138 116.442 100.347 122.186 116.101C128.388 133.223 139.328 143.319 139.442 143.471L139.29 143.585C139.138 143.509 128.16 133.299 121.958 116.177C118.971 107.863 117.58 99.2075 117.787 90.5891Z" fill="#231F20"/>
<path d="M118.059 92.7152C118.097 92.6393 119.823 83.451 123.794 74.1482C126.176 68.7944 128.752 64.3897 131.596 61.1618C135.199 57.1744 139.072 54.9335 143.293 54.6666L143.293 54.8565C139.149 55.1612 135.313 57.3263 131.786 61.3516C128.942 64.5794 126.329 68.8703 123.984 74.338C120.165 83.337 118.362 92.2975 118.211 92.7911C118.364 93.2467 120.74 100.308 125.363 109.153C129.833 117.542 137.315 129.234 147.908 137.356L147.832 137.508C137.278 129.31 129.719 117.58 125.249 109.191C120.473 100.08 118.097 92.8291 118.059 92.7152Z" fill="#231F20"/>
<path d="M118.059 92.7152C118.097 92.6392 121.048 86.3361 126.242 79.9185C129.275 76.1211 132.538 73.007 135.879 70.6902C140.016 67.7278 144.386 66.0182 148.72 65.5236L148.72 65.7134C138.949 66.8169 131.133 74.1084 126.394 79.9944C121.427 86.1462 118.514 92.1835 118.249 92.7151C126.951 105.584 135.374 113.099 140.898 117.084C146.918 121.41 150.838 122.7 150.914 122.738L150.838 122.89C150.838 122.89 146.842 121.562 140.747 117.198C135.336 113.175 126.8 105.697 118.059 92.7152Z" fill="#231F20"/>
<path d="M116.348 77.4532C116.521 70.2395 117.788 59.8744 122.281 46.661L122.433 46.7369C117.185 62.2285 116.301 73.9223 116.509 80.946C116.756 88.6531 118.211 92.6012 118.249 92.7151C114.774 102.359 116.328 115.647 118.177 125.1C120.217 135.313 123.127 143.399 123.166 143.513L123.052 143.551C123.013 143.437 120.065 135.427 118.063 125.138C116.138 115.647 114.584 102.359 118.059 92.7152C117.944 92.3735 116.565 88.2735 116.395 80.984C116.354 79.921 116.351 78.782 116.348 77.4532Z" fill="#231F20"/>
<path d="M118.059 92.7151C118.211 92.6012 123.106 88.3098 129.523 84.2078C135.408 80.4097 143.916 76.1174 150.611 76.9889L150.612 77.1787C143.916 76.3072 135.522 80.5615 129.561 84.3217C123.562 88.1578 118.894 92.1834 118.249 92.7151C140.853 114.122 152.878 117.081 152.954 117.119L152.878 117.271C152.878 117.271 149.834 116.512 144.083 113.172C138.789 110.061 130.028 103.988 118.059 92.7151Z" fill="#231F20"/>
<path d="M117.983 92.6772L118.097 92.6392C118.325 92.5632 141.081 83.1419 149.873 86.101L149.797 86.2529C141.386 83.4835 120.263 91.9173 118.325 92.7531C126.895 98.256 135.762 100.494 141.696 101.366C148.24 102.351 152.726 101.932 152.726 101.932L152.727 102.122C152.727 102.122 148.164 102.503 141.697 101.555C135.686 100.646 126.743 98.37 118.135 92.7531L117.983 92.6772Z" fill="#231F20"/>
<path d="M117.869 92.7152L118.173 92.6772C118.325 92.5633 136.19 88.952 151.375 93.58L151.299 93.7319C137.294 89.4073 120.986 92.1829 118.515 92.753C137.087 98.2155 152.679 98.2116 152.869 98.2115L152.87 98.4014C152.717 98.3255 136.935 98.3294 118.135 92.7531L117.869 92.7152Z" fill="#231F20"/>
<path d="M118.059 92.7152C118.097 92.6392 122.231 88.1582 128.113 83.2211C133.578 78.7397 141.779 72.9667 149.646 71.1044L149.684 71.2183C134.938 74.6769 119.046 91.8797 118.249 92.7151C122.736 108.128 129.535 120.048 134.421 127.412C139.764 135.384 144.035 139.787 144.111 139.825L144.035 139.977C143.959 139.939 139.689 135.536 134.345 127.564C129.383 120.162 122.622 108.166 118.059 92.7152Z" fill="#231F20"/>
<path d="M118.06 93.2847C118.06 93.0949 118.059 92.905 118.059 92.7152C118.097 92.6392 120.514 85.8806 125.288 78.5899C129.683 71.8688 136.925 63.2486 146.616 60.5885L146.654 60.7024C137.001 63.2866 129.797 71.8308 125.402 78.5519C120.818 85.6528 118.362 92.2975 118.211 92.6013C117.652 112.799 120.305 124.454 122.526 130.68C124.976 137.4 127.567 139.449 127.567 139.449L127.491 139.601C127.491 139.601 124.9 137.552 122.374 130.794C120.191 124.682 117.653 113.179 118.06 93.2847Z" fill="#231F20"/>
<path d="M117.936 88.9565C117.93 86.6785 118.302 83.4513 119.319 79.5025C120.563 74.9083 122.681 70.2759 125.408 65.7572C128.893 60.0994 133.519 54.631 139.211 49.5042L139.326 49.656C126.5 61.2769 121.469 72.3264 119.434 79.6544C117.324 87.5139 118.173 92.6771 118.211 92.791C122.549 109.457 129.465 122.668 134.505 130.867C140.041 139.598 144.503 144.57 144.579 144.608L144.427 144.722C144.351 144.684 139.889 139.712 134.353 130.791C129.313 122.592 122.321 109.343 118.059 92.7151C118.059 92.7151 117.865 91.3864 117.936 88.9565Z" fill="#231F20"/>
<path d="M118.176 93.8161C118.632 93.854 118.935 93.2464 118.933 92.4871C119.007 91.7657 118.626 91.1963 118.245 91.1964C117.865 91.1965 117.486 91.7661 117.488 92.5254C117.528 93.2088 117.795 93.8162 118.176 93.8161Z" fill="#231F20"/>
</g>
<defs>
<clipPath id="clip0_177_276">
<rect width="98" height="154" fill="white" transform="translate(181.929 69.6536) rotate(116.487)"/>
</clipPath>
</defs>
</svg>
