<svg width="106" height="160" viewBox="0 0 106 160" fill="none" xmlns="http://www.w3.org/2000/svg">
<g clip-path="url(#clip0_179_617)">
<path d="M0.417287 6.9824C2.16026 11.4129 13.821 38.2784 27.0701 62.8526C39.9884 87.6131 54.4143 110.171 54.4143 110.171C54.4991 110.167 54.5797 110.078 54.6645 110.074C54.6645 110.074 39.3131 85.942 26.3414 60.0768C12.9543 34.4019 1.78559 7.17187 2.03842 5.37084C1.46979 5.90939 0.985912 6.44385 0.417287 6.9824Z" fill="#231F20"/>
<path d="M56.0478 108.815C57.7058 107.968 59.2791 107.125 61.0302 106.444C73.1738 101.088 87.2573 98.9598 103.026 100.072L103.034 100.242C67.4928 97.7845 46.8771 112.409 35.9379 125.118C24.031 138.896 20.5676 153.374 20.4911 153.548L20.3175 153.471C20.3093 153.302 23.8533 138.735 35.7602 124.957C41.5545 118.288 48.4272 112.845 56.0478 108.815Z" fill="#231F20"/>
<path d="M54.3255 110.09C54.4102 110.086 63.2706 107.103 73.3271 106.021C79.1625 105.484 84.2639 105.578 88.47 106.483C93.7095 107.678 97.5575 109.962 99.8527 113.514L99.6873 113.607C97.3962 110.14 93.6329 107.852 88.3976 106.742C84.1915 105.837 79.1707 105.654 73.2547 106.28C63.5372 107.346 54.8381 110.151 54.3337 110.26C54.0111 110.617 49.011 116.139 43.5531 124.495C38.4178 132.495 31.8733 144.736 29.9627 157.946L29.7932 157.955C31.7885 144.74 38.3289 132.414 43.4643 124.414C49.0794 115.795 54.2448 110.179 54.3255 110.09Z" fill="#231F20"/>
<path d="M54.3255 110.09C54.4102 110.086 61.3515 109.581 69.4889 110.977C74.2841 111.767 78.5955 113.092 82.2493 114.875C86.856 117.038 90.4825 120.014 93.032 123.554L92.8666 123.647C87.1293 115.662 76.9483 112.405 69.4971 111.147C61.7028 109.819 55.0117 110.228 54.4184 110.256C47.4434 124.137 45.0024 135.158 44.2248 141.925C43.3912 149.291 44.1814 153.341 44.1855 153.426L44.016 153.435C44.016 153.435 43.2217 149.299 44.0512 141.848C44.9176 135.162 47.2698 124.06 54.3255 110.09Z" fill="#231F20"/>
<path d="M66.8053 101.14C73.1833 97.7653 82.846 93.8063 96.57 91.2696L96.5782 91.4396C80.4977 94.4308 69.8631 99.3737 63.8364 102.987C57.2328 106.968 54.4991 110.167 54.4184 110.256C44.3059 111.937 33.4718 119.786 26.1275 126.018C18.2145 132.789 12.5816 139.279 12.5009 139.368L12.4121 139.287C12.4927 139.198 18.0409 132.712 26.0386 125.937C33.3789 119.62 44.2129 111.771 54.3255 110.09C54.5674 109.823 57.4707 106.616 63.7475 102.906C64.6552 102.351 65.6475 101.792 66.8053 101.14Z" fill="#231F20"/>
<path d="M54.3255 110.09C54.4991 110.167 60.6353 112.341 67.3498 115.935C73.5394 119.214 81.4418 124.54 83.953 130.807L83.7876 130.9C81.2764 124.633 73.4628 119.388 67.2691 116.024C60.9907 112.665 55.1976 110.559 54.4184 110.256C46.7864 140.438 50.0811 152.375 50.0852 152.46L49.9157 152.468C49.9157 152.468 49.09 149.442 49.1936 142.792C49.3219 136.653 50.3386 126.042 54.3255 110.09Z" fill="#231F20"/>
<path d="M54.3214 110.005L54.4102 110.086C54.5879 110.248 73.9278 125.499 75.6422 134.616L75.4727 134.624C73.7788 125.932 56.0984 111.623 54.4225 110.341C53.8091 120.507 56.1892 129.337 58.3286 134.94C60.6663 141.131 63.2239 144.841 63.2239 144.841L63.0585 144.934C63.0585 144.934 60.4968 141.139 58.1632 135.034C56.0197 129.345 53.6355 120.431 54.3296 110.175L54.3214 110.005Z" fill="#231F20"/>
<path d="M54.2325 109.924L54.4143 110.171C54.5879 110.248 66.4684 124.07 69.8506 139.58L69.6811 139.589C66.6106 125.256 56.2201 112.384 54.5155 110.507C58.8246 129.38 66.4471 142.982 66.54 143.147L66.3746 143.241C66.3664 143.071 58.651 129.303 54.3296 110.175L54.2325 109.924Z" fill="#231F20"/>
<path d="M54.3255 110.09C54.4102 110.086 60.34 111.504 67.522 114.223C74.1025 116.802 83.1462 121.135 88.6155 127.09L88.5349 127.179C78.3112 116.002 55.5366 110.543 54.4184 110.256C43.1634 121.703 36.0858 133.459 32.0481 141.32C27.7043 149.878 25.9493 155.755 25.9534 155.84L25.7839 155.848C25.7798 155.763 27.5348 149.886 31.8786 141.329C35.9122 133.382 43.0746 121.622 54.3255 110.09Z" fill="#231F20"/>
<path d="M53.8293 110.37C53.9947 110.277 54.1601 110.183 54.3255 110.09C54.4102 110.086 61.4882 108.893 70.1819 109.495C78.1935 110.045 89.2534 112.152 96.3098 119.307L96.2291 119.396C89.2575 112.237 78.2823 110.126 70.2707 109.576C61.8354 109.046 54.8381 110.151 54.4991 110.167C36.6035 119.549 27.7309 127.559 23.3842 132.539C18.7191 137.96 18.197 141.223 18.197 141.223L18.0275 141.231C18.0275 141.231 18.5496 137.969 23.2106 132.462C27.4767 127.571 36.2727 119.736 53.8293 110.37Z" fill="#231F20"/>
<path d="M57.5445 108.146C59.5293 107.028 62.5269 105.776 66.4691 104.734C71.0852 103.574 76.162 103.158 81.437 103.33C88.0762 103.605 95.1078 104.969 102.362 107.43L102.286 107.604C85.8795 102.093 73.7808 103.103 66.3926 104.908C58.5041 106.907 54.4143 110.171 54.3337 110.26C41.9127 122.189 33.7662 134.678 29.0751 143.082C24.1626 152.179 22.0045 158.501 22.0086 158.586L21.8349 158.509C21.8308 158.424 23.989 152.102 29.0669 142.912C33.758 134.508 41.9004 121.934 54.3255 110.09C54.3255 110.09 55.3903 109.272 57.5445 108.146Z" fill="#231F20"/>
<path d="M53.422 110.73C53.612 111.147 54.29 111.114 54.9516 110.742C55.6172 110.454 55.9275 109.843 55.7416 109.511C55.5557 109.179 54.8736 109.127 54.212 109.5C53.6352 109.868 53.236 110.399 53.422 110.73Z" fill="#231F20"/>
</g>
<defs>
<clipPath id="clip0_179_617">
<rect width="98" height="154" fill="white" transform="translate(105.657 154.547) rotate(177.236)"/>
</clipPath>
</defs>
</svg>
