<svg width="176" height="152" viewBox="0 0 176 152" fill="none" xmlns="http://www.w3.org/2000/svg">
<g clip-path="url(#clip0_179_632)">
<path d="M174.083 66.553C169.546 65.9136 141.515 62.951 114.651 62.4047C87.7882 61.493 62.0555 62.8879 62.0555 62.8879C62.0188 62.9608 62.0552 63.0706 62.0184 63.1435C62.0184 63.1435 89.5081 61.7191 117.322 63.1097C145.173 64.0619 173.276 67.6094 174.665 68.6747C174.483 67.9431 174.265 67.2845 174.083 66.553Z" fill="#231F20"/>
<path d="M62.4179 64.899C62.3415 66.6891 62.3018 68.4064 62.0423 70.1958C60.775 82.9068 55.8839 95.7128 47.4795 108.395L47.3332 108.321C66.2342 79.7131 63.7525 55.5135 58.2898 40.3273C52.3903 23.824 41.9036 14.0622 41.7941 13.9156L41.9407 13.8066C42.0869 13.8802 52.6101 23.7518 58.5096 40.2551C61.3499 48.2689 62.6525 56.6053 62.4179 64.899Z" fill="#231F20"/>
<path d="M62.1654 62.8519C62.1286 62.9248 60.4291 71.7607 56.5699 80.6976C54.2547 85.8405 51.7582 90.0692 49.0076 93.1641C45.5237 96.9868 41.7865 99.1277 37.7234 99.3672L37.7238 99.1845C41.7137 98.9082 45.4141 96.8402 48.8249 92.9806C51.5756 89.8857 54.1085 85.7669 56.3872 80.5142C60.0995 71.869 61.8718 63.2526 62.0191 62.7782C61.8735 62.3391 59.6166 55.5336 55.2033 47.002C50.9356 38.9095 43.7823 27.6264 33.6215 19.766L33.695 19.6201C43.819 27.5534 51.0455 38.8734 55.3132 46.9659C59.8724 55.7539 62.129 62.7421 62.1654 62.8519Z" fill="#231F20"/>
<path d="M62.1654 62.8519C62.1286 62.9248 59.2629 68.979 54.2375 75.1341C51.3028 78.7764 48.1498 81.76 44.9249 83.9761C40.9304 86.8102 36.7184 88.4376 32.5451 88.8958L32.5454 88.7131C41.9536 87.6912 49.5059 80.7058 54.0912 75.0605C58.8965 69.1602 61.7252 63.3617 61.9824 62.8511C53.6599 50.4306 45.5843 43.1632 40.2842 39.3052C34.5088 35.1164 30.7412 33.8589 30.6681 33.8221L30.7416 33.6762C30.7416 33.6762 34.5823 34.9706 40.4308 39.1962C45.621 43.0903 53.8065 50.3215 62.1654 62.8519Z" fill="#231F20"/>
<path d="M63.7493 77.5473C63.5537 84.4892 62.2913 94.4596 57.9129 107.158L57.7666 107.084C62.881 92.1965 63.7797 80.9457 63.609 74.185C63.4027 66.7665 62.0188 62.9608 61.9824 62.851C65.3664 53.5834 63.9255 40.7885 62.1851 31.683C60.263 21.8459 57.4955 14.0517 57.4591 13.942L57.5689 13.9059C57.6053 14.0156 60.4096 21.7369 62.295 31.6469C64.1085 40.7892 65.5494 53.5841 62.1654 62.8518C62.2746 63.1811 63.5851 67.1327 63.7188 74.1489C63.7536 75.1722 63.7516 76.2684 63.7493 77.5473Z" fill="#231F20"/>
<path d="M62.1654 62.8518C62.0188 62.9608 57.2899 67.0709 51.0973 70.9924C45.4177 74.6236 37.2117 78.7197 30.7716 77.8534L30.7719 77.6707C37.2121 78.537 45.3081 74.477 51.0609 70.8826C56.8504 67.2153 61.3593 63.3601 61.9824 62.851C40.3156 42.1553 28.7551 39.2588 28.6819 39.222L28.7554 39.0761C28.7554 39.0761 31.6821 39.8187 37.203 43.0564C42.285 46.0731 50.6925 51.9532 62.1654 62.8518Z" fill="#231F20"/>
<path d="M62.2385 62.8886L62.1287 62.9247C61.9089 62.9969 39.969 71.9708 31.5194 69.0867L31.5929 68.9409C39.6768 71.6408 60.0412 63.6105 61.9093 62.8142C53.6838 57.4828 45.1598 55.2927 39.4516 54.4294C33.1581 53.4541 28.8385 53.8387 28.8385 53.8387L28.8389 53.656C28.8389 53.656 33.2316 53.3082 39.452 54.2467C45.2332 55.1469 53.8304 57.3738 62.0923 62.8149L62.2385 62.8886Z" fill="#231F20"/>
<path d="M62.3484 62.8526L62.0555 62.8879C61.9089 62.997 44.7005 66.3992 30.105 61.8827L30.1785 61.7369C43.6399 65.9565 59.3462 63.3521 61.7262 62.8135C43.8748 57.4801 28.8687 57.4199 28.6857 57.4191L28.686 57.2364C28.8323 57.3101 44.0214 57.3711 62.0923 62.815L62.3484 62.8526Z" fill="#231F20"/>
<path d="M62.1654 62.8517C62.1287 62.9246 58.1314 67.2204 52.4498 71.9478C47.1716 76.2384 39.2559 81.7607 31.6764 83.5208L31.64 83.411C45.8469 80.1429 61.2123 63.6518 61.9824 62.851C57.727 47.9985 51.2328 36.4988 46.5608 29.3913C41.4506 21.6973 37.359 17.4422 37.2859 17.4054L37.3593 17.2595C37.4325 17.2963 41.5241 21.5514 46.6342 29.2454C51.3794 36.3898 57.8368 47.9624 62.1654 62.8517Z" fill="#231F20"/>
<path d="M62.1664 62.3036C62.166 62.4863 62.1657 62.669 62.1654 62.8517C62.1287 62.9246 59.7745 69.4193 55.1502 76.4165C50.8929 82.8671 43.8872 91.1336 34.5495 93.6539L34.5131 93.5442C43.8141 91.0968 50.783 82.9032 55.0403 76.4526C59.4813 69.6374 61.8719 63.2524 62.0188 62.9607C62.6395 43.5238 60.1343 32.2958 58.0223 26.2948C55.6916 19.8178 53.2064 17.8346 53.2064 17.8346L53.2798 17.6888C53.2798 17.6888 55.7651 19.6719 58.1689 26.1857C60.2445 32.077 62.6402 43.1584 62.1664 62.3036Z" fill="#231F20"/>
<path d="M62.2687 66.4696C62.2647 68.662 61.8931 71.7665 60.898 75.5627C59.6822 79.9792 57.6245 84.4288 54.9815 88.7665C51.6044 94.1975 47.1297 99.4413 41.6307 104.352L41.5212 104.206C53.9123 93.074 58.7993 82.4604 60.7885 75.4161C62.8518 67.8605 62.0555 62.8878 62.0191 62.7781C57.9123 46.7204 51.3106 33.9779 46.4936 26.0658C41.2017 17.6403 36.9281 12.8364 36.855 12.7996L37.0016 12.6905C37.0747 12.7274 41.3483 17.5313 46.6399 26.1395C51.4568 34.0515 58.1317 46.8309 62.1654 62.8517C62.1654 62.8517 62.3461 64.1314 62.2687 66.4696Z" fill="#231F20"/>
<path d="M62.0575 61.7916C61.6184 61.7533 61.3245 62.3368 61.3232 63.0676C61.2487 63.7615 61.6137 64.3111 61.9797 64.3126C62.3457 64.314 62.7127 63.7674 62.7141 63.0366C62.6786 62.3787 62.4235 61.7931 62.0575 61.7916Z" fill="#231F20"/>
</g>
<defs>
<clipPath id="clip0_179_632">
<rect width="94.3184" height="148.215" fill="white" transform="translate(0.600189 84.7847) rotate(-63.2682)"/>
</clipPath>
</defs>
</svg>
