<svg width="126" height="170" viewBox="0 0 126 170" fill="none" xmlns="http://www.w3.org/2000/svg">
<g clip-path="url(#clip0_177_351)">
<path d="M96.788 168.332C96.1468 163.614 91.1982 134.748 84.1626 107.731C77.4927 80.6116 68.8352 55.2734 68.8352 55.2734C68.7519 55.2573 68.6524 55.3246 68.5691 55.3085C68.5691 55.3085 77.7519 82.3952 84.2114 110.601C91.1198 138.72 95.5039 167.823 94.8306 169.513C95.5109 169.124 96.1078 168.72 96.788 168.332Z" fill="#231F20"/>
<path d="M66.9264 56.2034C65.1147 56.6322 63.3863 57.0771 61.5237 57.3228C48.4555 59.6428 34.2695 58.3663 19.2156 53.5414L19.248 53.3744C53.1898 64.2006 76.6883 54.889 90.3322 45.1405C105.17 34.5834 111.972 21.3419 112.087 21.191L112.238 21.3069C112.205 21.4739 105.304 34.7828 90.4664 45.3399C83.2546 50.4419 75.2861 54.0972 66.9264 56.2034Z" fill="#231F20"/>
<path d="M68.9023 55.3731C68.819 55.3569 59.5037 56.1512 49.4779 54.8144C43.6818 53.9508 38.7487 52.6479 34.8776 50.7708C30.0717 48.3659 26.8761 45.2331 25.4899 41.2377L25.6727 41.1865C27.0751 45.0983 30.1874 48.2149 35.0095 50.5364C38.8806 52.4134 43.7142 53.7838 49.6098 54.5799C59.3024 55.8522 68.4187 55.1927 68.9347 55.206C69.3327 54.9365 75.501 50.7589 82.7868 43.9379C89.6746 37.3864 98.9385 27.0488 103.931 14.6699L104.098 14.7022C99.0218 27.065 89.7417 37.4861 82.8539 44.0375C75.353 51.0768 69.0018 55.3057 68.9023 55.3731Z" fill="#231F20"/>
<path d="M68.9024 55.3731C68.8191 55.3569 61.9562 54.1999 54.383 50.9119C49.9126 49.0053 46.0391 46.6944 42.913 44.0951C38.9516 40.9005 36.1355 37.148 34.4994 33.1041L34.6822 33.0529C38.3594 42.1724 47.4761 47.753 54.4154 50.7448C61.6716 53.8848 68.2684 55.0768 68.8514 55.1899C78.9227 43.3622 83.9107 33.2357 86.2727 26.8469C88.8314 19.8896 89.0255 15.7672 89.0417 15.6837L89.2083 15.716C89.2083 15.716 88.9979 19.9219 86.4231 26.9627C83.994 33.2519 79.0731 43.478 68.9024 55.3731Z" fill="#231F20"/>
<path d="M54.6543 61.1045C47.6575 62.8681 37.331 64.4197 23.3973 63.6254L23.4297 63.4583C39.7605 64.3707 51.2646 62.0941 57.9769 60.0152C65.3369 57.7153 68.752 55.2573 68.8515 55.1899C79.0739 55.9581 91.4617 50.9061 100.076 46.5959C109.37 41.8976 116.383 36.9304 116.482 36.863L116.549 36.9627C116.45 37.03 109.52 42.0134 100.143 46.6956C91.5126 51.0893 79.1248 56.1413 68.9024 55.3731C68.6039 55.5752 65.0223 58.0009 58.044 60.1149C57.0305 60.4384 55.9338 60.7458 54.6543 61.1045Z" fill="#231F20"/>
<path d="M68.9023 55.3731C68.7519 55.2573 63.3073 51.6885 57.6382 46.6029C52.4041 41.9483 45.9922 34.8987 45.0408 28.2142L45.2236 28.163C46.1749 34.8474 52.5198 41.7974 57.7377 46.5355C63.0389 51.2898 68.1665 54.7104 68.8514 55.1899C83.4314 27.6828 83.0651 15.3051 83.0813 15.2216L83.2479 15.2539C83.2479 15.2539 83.3313 18.3901 81.6519 24.8245C80.0696 30.7578 76.5625 40.8246 68.9023 55.3731Z" fill="#231F20"/>
<path d="M68.8861 55.4566L68.819 55.3569C68.6848 55.1576 53.519 35.7511 54.0182 26.4878L54.1848 26.5201C53.7665 35.3657 67.544 53.4631 68.8676 55.1064C71.8773 45.3764 71.6616 36.2346 70.9138 30.283C70.1129 23.7144 68.5092 19.5035 68.5092 19.5035L68.6919 19.4523C68.6919 19.4523 70.2795 23.7467 71.0966 30.2318C71.8281 36.2669 72.0277 45.4923 68.9185 55.2896L68.8861 55.4566Z" fill="#231F20"/>
<path d="M68.9533 55.5563L68.8353 55.2734C68.6849 55.1576 60.4259 38.9099 60.823 23.0402L60.9896 23.0725C60.5693 37.7244 67.6065 52.6952 68.8167 54.9231C69.1117 35.567 64.9368 20.5443 64.8858 20.3611L65.0686 20.3099C65.0362 20.477 69.2621 35.6828 68.9186 55.2896L68.9533 55.5563Z" fill="#231F20"/>
<path d="M68.9024 55.3731C68.8191 55.3569 63.3954 52.5722 57.0645 48.225C51.2844 44.1579 43.5282 37.801 39.629 30.7185L39.7285 30.6511C47.0062 43.9352 67.8333 54.6458 68.8515 55.1899C82.5024 46.7427 92.1689 37.0032 97.9576 30.3253C104.209 23.0438 107.309 17.7515 107.325 17.6679L107.492 17.7002C107.476 17.7838 104.376 23.0761 98.1242 30.3576C92.3193 37.119 82.5695 46.8424 68.9024 55.3731Z" fill="#231F20"/>
<path d="M69.4507 55.2194C69.2679 55.2706 69.0851 55.3218 68.9023 55.3731C68.819 55.3569 61.6601 54.8359 53.358 52.1865C45.7061 49.7499 35.4626 45.0775 30.307 36.4515L30.4065 36.3841C35.4788 44.994 45.639 49.6502 53.2909 52.0868C61.3593 54.6042 68.4187 55.1927 68.7519 55.2573C88.3634 50.3922 98.884 44.7183 104.289 40.9126C110.108 36.754 111.389 33.7091 111.389 33.7091L111.556 33.7414C111.556 33.7414 110.274 36.7863 104.439 41.0285C99.1339 44.7667 88.729 50.2898 69.4507 55.2194Z" fill="#231F20"/>
<path d="M65.3137 56.4974C63.1203 57.1122 59.911 57.6168 55.8341 57.6932C51.0746 57.7239 46.0444 56.9221 40.9609 55.5034C34.577 53.6592 28.0704 50.6646 21.6077 46.5518L21.7234 46.4009C36.3518 55.6499 48.3443 57.5413 55.9498 57.5423C64.0874 57.4731 68.8352 55.2734 68.9347 55.206C83.8328 46.5673 94.7117 36.3695 101.264 29.3196C108.196 21.65 111.793 16.0207 111.809 15.9372L111.96 16.053C111.944 16.1365 108.346 21.7658 101.232 29.4867C94.6793 36.5365 83.7842 46.8179 68.9023 55.3731C68.9023 55.3731 67.6737 55.9149 65.3137 56.4974Z" fill="#231F20"/>
<path d="M69.9319 54.966C69.8463 54.5161 69.1799 54.3869 68.4488 54.5918C67.7338 54.7132 67.2873 55.2333 67.3891 55.5997C67.4909 55.9662 68.1411 56.1789 68.8723 55.9739C69.5201 55.7528 70.0338 55.3324 69.9319 54.966Z" fill="#231F20"/>
</g>
<defs>
<clipPath id="clip0_177_351">
<rect width="98" height="154" fill="white" transform="translate(29.5945) rotate(10.9706)"/>
</clipPath>
</defs>
</svg>
